<svg id="Phone-Logo" xmlns="http://www.w3.org/2000/svg" x="0" y="0" viewBox="0 0 400 208.3" 
width="100" height="50" xml:space="preserve" 
aria-label="PhoneLogo"><g fill="#61DAFB">
<path d="M22.7 56.6L2.5 151.5c-.8 4-1.3 7.9-1.3 11.7 0 25.2 18.4 44.2 
45.2 44.2h175.1c30.8 0 61.1-25 67.7-55.8l20.2-94.9c.9-4 1.3-7.9 1.3-11.7 0-25.2-18.4-44.2-45.2-44.2H90.3C59.5.7 29.2 25.7 
22.7 56.6z" fill="#fff">
</path>
<path class="Phone-Logo_2" d="M246.7 174.6c-17.4 12.6-37.9 
24.2-58.8 32.8h33.6c30.8 0 61.1-25 67.7-55.8l3.5-16.5c-12.8 13.1-28 26.5-46 39.5zM234.6 6.8c17.8 23 8.2 88-39.8 
126-45.5 36.1-77.8 19.5-86 7.9 0 0-9.6 25.2.5 40 15.7 23 63.3 18 127-23.5 25.7-16.7 46.2-34.3 
62.7-51.6l10.4-49.1c.9-4 1.3-7.9 1.3-11.7 0-25.2-18.4-44.2-45.2-44.2h-36.4c1.9 2 3.8 4 5.5 6.2zM65.3 33.5C82.6 
21 103.1 9.3 124 .8H90.4c-30.8 0-61.1 25-67.7 55.8l-3.5 16.6c12.9-13.3 28.1-26.7 46.1-39.7z">
</path>
<path class="Phone-Logo_2" 
d="M77.3 201.3c-17.8-23-8.2-88 39.8-126 45.5-36.1 77.8-19.5 86-7.9 0 0 9.6-25.2-.5-40-15.7-23-63.2-18-127 
23.5-25.7 16.7-46.2 34.3-62.7 51.6l-10.5 49c-.9 4-1.3 7.9-1.3 11.7 0 25.2 18.4 44.1 45.2 44.1h36.4c-1.9-1.8-3.7-3.8-5.4-6z">
</path>
</g>
</svg>
